# xmcd
#
# Track frame offsets:
#	150
#	14541
#	34791
#	47333
#	72333
#	89575
#	104294
#	124105
#	139513
#	158775
#	174395
#	190977
#	220847
#	237764
#	253829
#	269312
#	283851
#	298451
#	317078
#	331655
#	345177
#
# Disc length: 4770
#
# Revision: 1
# Processed by: cddbd v1.5.1PL0 Copyright (c) Steve Scherf et al.
# Submitted via: dBpowerAMP V4.0
# Normalized: r0:DSETVAR1,TDELIM( - )
#
DISCID=3712a015
DTITLE=Various Artist - The Best Hits Of 80.s vol4 cd2
DYEAR=2004
DGENRE=Disco
TTITLE0=Secret Service - La Goodbye
TTITLE1=Bonie M - We Kill The World
TTITLE2=Arabesque - In For A Penny, In For A Pound
TTITLE3=Fancy - I Can.t Live Without You
TTITLE4=Mike Mareen - Agent Of Liberty
TTITLE5=Ricchi and Power - Piccolo Amore
TTITLE6=Freddy Mercury - Love Kills
TTITLE7=Silent Circle - Moonlight Affair
TTITLE8=Cherry Laine - Sergeant Rock
TTITLE9=Key West - Sorry, Sorry, Sorry,
TTITLE10=Sandra - Around My Heart
TTITLE11=Savage - Fugitive
TTITLE12=Chilly - The race
TTITLE13=Scotch - Take Me Up
TTITLE14=Blue System - Love Me On The Rock
TTITLE15=Baby.s Gang - Challenger
TTITLE16=Black Blood - A.I.E.
TTITLE17=Kim Wilde - Keep Me Handin On
TTITLE18=Maywood - Rio
TTITLE19=La Bionda - I Wanna Be Your Lover
TTITLE20=The Monotones - Disco net-Wodka Da
EXTD=
EXTT0=
EXTT1=
EXTT2=
EXTT3=
EXTT4=
EXTT5=
EXTT6=
EXTT7=
EXTT8=
EXTT9=
EXTT10=
EXTT11=
EXTT12=
EXTT13=
EXTT14=
EXTT15=
EXTT16=
EXTT17=
EXTT18=
EXTT19=
EXTT20=
PLAYORDER=
